<svg width="225" height="52" viewBox="0 0 225 52" fill="none" xmlns="http://www.w3.org/2000/svg">
<g clip-path="url(#clip-logo)">
<g style="mix-blend-mode:multiply">
<g style="mix-blend-mode:multiply">
<path d="M53.3618 13.55C52.4713 13.5474 51.5816 13.6084 50.6988 13.7323C47.7921 14.1277 45.0003 15.1824 42.514 16.8244C38.7426 19.2912 35.8208 22.9764 34.1804 27.3358C33.2313 29.886 32.745 32.6027 32.7471 35.3437V51.2268H47.7774C53.2388 51.2136 58.4726 48.9099 62.3321 44.8202C66.1917 40.7306 68.3624 35.1885 68.3686 29.4082V13.55H53.3618ZM65.4941 29.4082C65.49 34.3823 63.6228 39.1518 60.3019 42.6714C56.9809 46.191 52.477 48.1735 47.7774 48.1844H35.6215V35.3437C35.6197 32.7594 36.1233 30.2027 37.1005 27.8344C38.0778 25.4661 39.5076 23.3376 41.3 21.5827C42.0431 20.8465 42.8479 20.1834 43.7045 19.6015C46.2557 17.8332 49.1981 16.799 52.2418 16.6006C52.6099 16.6006 53.025 16.6006 53.3618 16.6006H65.4941V29.4082Z" fill="#48B591"/>
</g>
</g>
<g style="mix-blend-mode:multiply">
<g style="mix-blend-mode:multiply">
<path d="M55.383 16.5674C55.0382 15.7131 54.6432 14.8825 54.2003 14.0805L53.9183 13.55L46.6969 0.286407L34.1651 7.92953L33.6795 8.22796C32.9103 8.69612 32.1723 9.2196 31.4708 9.79472C29.1411 11.67 27.2227 14.0569 25.8472 16.7912C25.3942 17.6962 24.9991 18.6323 24.6645 19.5932C24.453 20.2066 24.265 20.8366 24.1006 21.4749C23.3877 24.2453 23.2035 27.1383 23.5585 29.9848C23.9135 32.8314 24.8007 35.5747 26.1683 38.0544L30.2646 45.5815L31.6979 48.2093L32.7553 50.1408L33.1313 50.8371L33.3584 51.2516H34.5802L35.246 50.8537L35.6376 50.6133L39.5538 48.2093L46.6577 43.8655C50.9919 41.2146 54.2675 36.9863 55.8742 31.9686C57.4809 26.9508 57.3091 21.4859 55.3908 16.5923L55.383 16.5674ZM53.4875 29.831C52.8862 32.2117 51.8458 34.443 50.4263 36.3963C49.0068 38.3497 47.2362 39.9866 45.2166 41.2128L38.1048 45.5566L35.6219 47.0736L34.7056 47.629L34.1808 46.7089L32.7475 44.081L28.6433 36.5125C27.4713 34.3797 26.7113 32.0217 26.4074 29.5755C26.1035 27.1292 26.2619 24.6434 26.8732 22.2625C26.928 22.0304 26.9907 21.8065 27.0612 21.5744C27.3547 20.5457 27.7347 19.5469 28.1969 18.5901C29.5772 15.714 31.639 13.2661 34.1808 11.4858C34.4941 11.2703 34.8074 11.0548 35.1363 10.8641L36.883 9.79472L45.6395 4.43127L50.6992 13.6992L51.6939 15.5644C51.8819 15.9042 52.0542 16.2524 52.2265 16.6006C54.1582 20.6912 54.6068 25.3891 53.4875 29.8061V29.831Z" fill="#90C370"/>
</g>
</g>
<g style="mix-blend-mode:multiply">
<g style="mix-blend-mode:multiply">
<path d="M43.7047 19.6015C43.3675 18.6404 42.9697 17.7043 42.5142 16.7995C40.7057 13.2283 37.9937 10.2603 34.6819 8.22796L34.1963 7.92953L21.6723 0.286407L14.4509 13.55L14.1689 14.0722C13.7255 14.8726 13.3331 15.7035 12.9941 16.5591C11.0744 21.4508 10.9002 26.9143 12.504 31.9318C14.1078 36.9494 17.3801 41.1788 21.7115 43.8323L28.8233 48.1761L32.7394 50.5719L33.1154 50.804L33.789 51.2185H35.0108L35.2458 50.8537L35.6374 50.1325L36.6791 48.2093L38.1203 45.5815L42.2244 38.0544C43.7378 35.283 44.6552 32.1924 44.911 29.0028C45.1669 25.8133 44.755 22.6033 43.7047 19.6015ZM39.7259 36.5125L35.6217 44.023L34.1806 46.7089L33.6793 47.629L32.7708 47.0736L30.2801 45.5566L23.1761 41.2128C19.2684 38.8242 16.3654 34.9517 15.0563 30.381C13.7472 25.8102 14.13 20.8836 16.127 16.6006C16.2993 16.2524 16.4716 15.9042 16.6596 15.5644L17.67 13.7075L22.714 4.43127L31.4863 9.79472L33.2329 10.8641C33.554 11.063 33.8751 11.2703 34.1806 11.4858C37.9326 14.1341 40.5931 18.193 41.6228 22.8401C42.6525 27.4872 41.9744 32.3749 39.7259 36.5125Z" fill="#BDBF51"/>
</g>
</g>
<g style="mix-blend-mode:multiply">
<g style="mix-blend-mode:multiply">
<path d="M34.1804 27.3358C32.9069 23.9375 30.8497 20.9308 28.1965 18.5901C25.1949 15.9408 21.5446 14.2477 17.6698 13.7075C16.787 13.5838 15.8973 13.5228 15.0068 13.5251H0V29.4082C0.00414884 35.1935 2.17739 40.7406 6.0425 44.8314C9.90762 48.9222 15.1487 51.2224 20.6148 51.2268H35.6215V35.3436C35.6249 32.6018 35.1358 29.8843 34.1804 27.3358ZM20.6148 48.1844C15.911 48.18 11.4011 46.2004 8.07506 42.6801C4.74901 39.1599 2.87862 34.3866 2.87447 29.4082V16.5674H15.0068C15.3827 16.5674 15.79 16.5674 16.1268 16.5674C19.1667 16.767 22.1057 17.7981 24.6562 19.56C25.5079 20.1493 26.3121 20.812 27.0608 21.5412C28.8545 23.2973 30.2855 25.427 31.2641 27.7966C32.2427 30.1662 32.7476 32.7244 32.7471 35.3105V48.1844H20.6148Z" fill="#F5A069"/>
</g>
</g>
</g>
<defs>
<clipPath id="clip-logo">
<rect y="0.286407" width="225" height="50.9404" fill="white"/>
</clipPath>
</defs>
</svg>
